<svg id="Ban" xmlns="http://www.w3.org/2000/svg" viewBox="0 0 1308.99 250.3"><defs><style>.cls-1{fill:#201351;}.cls-2{fill:#ffcb1b;}.cls-3{fill:#878787;}</style></defs><title>Artboard 1 copy 5</title><g id="MESG-HEAD"><g id="Logo"><path id="MESG" class="cls-1" d="M110.22,76.29v97.76a6.93,6.93,0,0,1-1.79,5.11,6.83,6.83,0,0,1-5.11,1.79,6.93,6.93,0,0,1-5.11-1.79,6.83,6.83,0,0,1-1.79-5.11V97.83l-30.29,44.6a10.65,10.65,0,0,1-3.64,3.39,10.2,10.2,0,0,1-4.79,1.09,6,6,0,0,1-3.51-1.09A13.75,13.75,0,0,1,51,142.43L20.58,97.7v76.36a6.93,6.93,0,0,1-1.79,5.11A6.93,6.93,0,0,1,13.67,181a6.93,6.93,0,0,1-5.11-1.79,6.83,6.83,0,0,1-1.79-5.11V76.29a6.93,6.93,0,0,1,1.79-5.11,6.83,6.83,0,0,1,5.11-1.79c3.07,0,5.62,1.47,7.54,4.47l37.51,56.42L96.23,73.87a9.31,9.31,0,0,1,8.37-4.47C108.37,69.39,110.22,71.69,110.22,76.29ZM232,168.95a6.92,6.92,0,0,1-5.11,12h-59a6.93,6.93,0,0,1-5.11-1.79,6.83,6.83,0,0,1-1.79-5.11V76.29a6.93,6.93,0,0,1,1.79-5.11,6.83,6.83,0,0,1,5.11-1.79h59a6.92,6.92,0,1,1,0,13.8H174.76v34.57h32.72a6.92,6.92,0,1,1,0,13.8H174.76v35.53H226.9A7,7,0,0,1,232,168.95Zm50.42,6.33c-5.24-3.77-8.5-9.65-9.78-17.51-.19-2.3.26-4.09,1.47-5.37a6.85,6.85,0,0,1,5.24-1.92,6.71,6.71,0,0,1,4.92,1.6,9.31,9.31,0,0,1,2.3,5.18c.77,3.71,2.49,6.33,5.18,7.73s6.9,2.11,12.59,2.11h23.71c4.86,0,8.5-.58,11.12-1.66a10.08,10.08,0,0,0,5.5-5.5c1.09-2.56,1.66-6.2,1.66-10.93,0-7-1.34-11.82-4-14.5s-7.41-4-14.31-4H307.67c-10.29,0-18-2.49-23-7.54s-7.54-12.78-7.54-23.19,2.49-18,7.48-22.94,12.65-7.48,22.94-7.48h19.55q26,0,30,21.73a6.17,6.17,0,0,1-1.34,5.37,7.12,7.12,0,0,1-5.43,1.92,6.73,6.73,0,0,1-4.92-1.66,8.81,8.81,0,0,1-2.11-5.11A9.93,9.93,0,0,0,338.34,85c-2.43-1.21-6.13-1.79-11.18-1.79H307.54c-4.47,0-7.92.51-10.29,1.47a8.53,8.53,0,0,0-4.92,5c-1,2.36-1.41,5.75-1.41,10.1s.51,7.92,1.47,10.29a9.22,9.22,0,0,0,5,5.11c2.36,1,5.81,1.53,10.29,1.53h20.38c10.86,0,18.91,2.62,24.22,7.92s7.92,13.35,7.92,24.35-2.62,18.91-7.92,24.09S339,181,328.11,181H304.41C295,181,287.67,179,282.43,175.27Zm129.46-3.32c-6-6-8.95-15.27-8.95-27.86V106.26c0-12.59,3-21.92,8.95-28s15.21-9,27.73-8.88h19.94c10.29,0,18.21,2.11,23.64,6.39s8.56,11,9.46,20.06c.32,2.3-.13,4.09-1.34,5.24a7,7,0,0,1-5.24,1.79,6.91,6.91,0,0,1-5-1.73A8.85,8.85,0,0,1,478.79,96c-.58-4.92-2.24-8.31-5.11-10.1s-7.54-2.68-14.12-2.68H439.62c-5.94-.13-10.54.58-13.8,2a12.66,12.66,0,0,0-7,7.09c-1.34,3.32-2,7.92-2,14v37.83c0,6,.7,10.67,2.17,13.93a13,13,0,0,0,7,7c3.26,1.41,7.86,2.11,13.93,2.11h19.74q7.86,0,12.08-1.73a10.46,10.46,0,0,0,5.94-5.94q1.73-4.22,1.73-12.08v-7.73l-12.84-.19q-6.9,0-6.9-6.9a6.93,6.93,0,0,1,1.79-5.11,6.83,6.83,0,0,1,5.11-1.79l19.74.19a6.24,6.24,0,0,1,6.9,6.9v14.63c0,11.63-2.68,20.13-8.12,25.5s-13.93,8.05-25.43,8.05H439.81C427.16,181,417.89,178,411.88,171.95Z"/><path id="Lines" class="cls-2" d="M320.77,34.06a2,2,0,0,1-1.21-.38,2,2,0,0,1-.38-2.88l22.62-30A2.12,2.12,0,0,1,343.45,0H498a2,2,0,0,1,2,2,2,2,0,0,1-2,2H344.35l-22,29.14A2.09,2.09,0,0,1,320.77,34.06ZM499.87,18.47a2,2,0,0,0-2-2H355.53a2,2,0,1,0,0,4.09h142.3A2,2,0,0,0,499.87,18.47ZM159.23,249.52l22.62-30a2.05,2.05,0,1,0-3.26-2.49l-22,29.14H2a2,2,0,0,0,0,4.09H157.64A1.78,1.78,0,0,0,159.23,249.52Zm-11.76-17.7a2,2,0,0,0-2-2H2a2,2,0,0,0,0,4.09H145.43A2,2,0,0,0,147.48,231.82Z"/></g><path class="cls-3" d="M703.84,104.43q-2.9-2.9-2.91-9.21a1.47,1.47,0,1,1,2.94,0q0,5.11,2.07,7.14t7.17,2h10.08q5.11,0,7.17-2t2.06-7.14q0-5.11-2.06-7.14t-7.17-2h-9.87q-6,0-8.79-2.73t-2.76-8.75q0-6,2.76-8.75t8.71-2.73h10.29q5.95,0,8.71,2.73T735,74.5a1.47,1.47,0,1,1-2.94,0q0-4.69-1.92-6.58T723.54,66H713.25q-4.69,0-6.62,1.89t-1.92,6.65q0,4.76,1.92,6.65t6.69,1.89h9.87q6.37,0,9.27,2.91t2.91,9.21q0,6.3-2.91,9.21t-9.27,2.9H713.11Q706.74,107.33,703.84,104.43Z"/><path class="cls-3" d="M753,92.35v2.87q0,5.11,2.1,7.17t7.21,2.06h5.74q4.76,0,6.86-1.29a5.41,5.41,0,0,0,2.38-4.44,1.56,1.56,0,0,1,2.63-1.05,1.38,1.38,0,0,1,.31,1.12q-.35,4.48-3.32,6.54t-8.86,2.07h-5.74q-6.37,0-9.31-2.91t-2.94-9.27V87.38q0-6.44,2.94-9.38t9.31-2.87h5.74q6.44,0,9.34,2.9t2.91,9.35v3.5a1.3,1.3,0,0,1-1.47,1.47Zm0-2.94h24.36v-2q0-5.18-2.07-7.25t-7.25-2.07h-5.74q-5.11-.07-7.21,2T753,87.38Z"/><path class="cls-3" d="M813.91,76.6a1.3,1.3,0,0,1-1.47,1.47q-6.3,0-9.83,3t-3.89,8.75a1,1,0,0,1-.07.42v15.68a1.47,1.47,0,0,1-2.94,0V76.6a1.47,1.47,0,0,1,2.94,0v6.58a12.79,12.79,0,0,1,5.25-6,16.54,16.54,0,0,1,8.54-2.06A1.3,1.3,0,0,1,813.91,76.6Z"/><path class="cls-3" d="M851.15,76.53a1.65,1.65,0,0,1-.21.7l-14.21,29a1.93,1.93,0,0,1-.77.91,2.52,2.52,0,0,1-1.12.21,2,2,0,0,1-1.12-.28,2.09,2.09,0,0,1-.7-.84L819.65,77.16l-.14-.63a1.36,1.36,0,0,1,1-1.26,2.32,2.32,0,0,1,.7-.14,1.31,1.31,0,0,1,1.19.91l12.53,27.37L848.21,76a1.31,1.31,0,0,1,1.19-.91,1.75,1.75,0,0,1,.77.14A1.36,1.36,0,0,1,851.15,76.53Z"/><path class="cls-3" d="M861,66.38V65a1.86,1.86,0,0,1,2.1-2.1h1.4a1.86,1.86,0,0,1,2.1,2.1v1.4a2.18,2.18,0,0,1-.56,1.61,2.08,2.08,0,0,1-1.54.56h-1.4A1.89,1.89,0,0,1,861,66.38Zm1.33,39.55V76.6a1.47,1.47,0,0,1,2.94,0v29.33a1.47,1.47,0,0,1-2.94,0Z"/><path class="cls-3" d="M883.63,104.46q-2.94-2.94-2.94-9.31V87.31q0-6.44,2.94-9.34t9.31-2.83h5.74q5.18,0,7.77,1.75a7.17,7.17,0,0,1,3,5.46v.14q0,1.4-1.47,1.4-1.26,0-1.47-1.4a4.18,4.18,0,0,0-2.1-3.4,12.31,12.31,0,0,0-5.74-1h-5.74q-5.18-.07-7.24,2t-2.07,7.25v7.84q0,5.11,2.1,7.21t7.21,2.1h5.74a12.3,12.3,0,0,0,5.74-1,4.17,4.17,0,0,0,2.1-3.39q.21-1.4,1.47-1.4a1.49,1.49,0,0,1,1.15.42,1.38,1.38,0,0,1,.32,1.12,7.17,7.17,0,0,1-3,5.46q-2.59,1.75-7.77,1.75h-5.74Q886.57,107.4,883.63,104.46Z"/><path class="cls-3" d="M925.7,92.35v2.87q0,5.11,2.1,7.17t7.21,2.06h5.74q4.76,0,6.86-1.29A5.41,5.41,0,0,0,950,98.72a1.56,1.56,0,0,1,2.63-1.05,1.38,1.38,0,0,1,.31,1.12q-.35,4.48-3.32,6.54t-8.86,2.07H935q-6.37,0-9.31-2.91t-2.94-9.27V87.38q0-6.44,2.94-9.38T935,75.13h5.74q6.44,0,9.34,2.9T953,87.38v3.5a1.3,1.3,0,0,1-1.47,1.47Zm0-2.94h24.36v-2q0-5.18-2.07-7.25t-7.25-2.07H935q-5.11-.07-7.21,2t-2.1,7.28Z"/><path class="cls-3" d="M732.26,187a2.52,2.52,0,0,1-1.85,4.38H704.85a2.31,2.31,0,0,1-2.52-2.52V147.37a2.31,2.31,0,0,1,2.52-2.52H730.4a2.52,2.52,0,1,1,0,5h-23v15.47h14.77a2.52,2.52,0,1,1,0,5H707.37v16h23A2.51,2.51,0,0,1,732.26,187Z"/><path class="cls-3" d="M763.86,188.88a2.31,2.31,0,0,1-2.52,2.52q-6.72,0-9.91-3.15t-3.18-9.87V161.86h-3.71a2.52,2.52,0,1,1,0-5h3.71v-6a2.52,2.52,0,1,1,5,0v6h8.33a2.52,2.52,0,1,1,0,5h-8.33v16.52a12.74,12.74,0,0,0,.74,4.86,4.36,4.36,0,0,0,2.45,2.42,13.34,13.34,0,0,0,4.87.7A2.23,2.23,0,0,1,763.86,188.88Z"/><path class="cls-3" d="M806.56,160q3.22,3.22,3.22,10.08v18.76a2.52,2.52,0,1,1-5,0V170.12a12.75,12.75,0,0,0-.77-5,4.76,4.76,0,0,0-2.52-2.52,12.72,12.72,0,0,0-5-.77h-2a16.94,16.94,0,0,0-7.67,1.4,6.31,6.31,0,0,0-3.39,4.27,2.77,2.77,0,0,1-.28.77v20.58a2.52,2.52,0,1,1-5,0v-44a2.52,2.52,0,1,1,5,0v14.7q4.2-2.8,11.34-2.8h2Q803.34,156.82,806.56,160Z"/><path class="cls-3" d="M830.22,176.14v2a12.47,12.47,0,0,0,.77,4.9,4.75,4.75,0,0,0,2.52,2.52,12.72,12.72,0,0,0,5,.77h5.74a14.56,14.56,0,0,0,5.74-.84,4.06,4.06,0,0,0,2.31-2.94,3.65,3.65,0,0,1,.88-1.79,2.42,2.42,0,0,1,1.78-.59,2.61,2.61,0,0,1,1.93.67,2.09,2.09,0,0,1,.46,1.92,9,9,0,0,1-3.92,6.51q-3.22,2.1-9.17,2.1h-5.74q-6.79,0-10-3.22t-3.26-10v-8q0-6.86,3.26-10.11t10-3.19h5.74q6.86,0,10.08,3.22t3.22,10.08v3.5a2.31,2.31,0,0,1-2.52,2.52Zm0-5h22.26v-1a12.74,12.74,0,0,0-.77-5,4.76,4.76,0,0,0-2.52-2.52,12.73,12.73,0,0,0-5-.77h-5.74a12.09,12.09,0,0,0-5,.7,4.74,4.74,0,0,0-2.52,2.55,13,13,0,0,0-.77,5Z"/><path class="cls-3" d="M893.47,157.49a2.52,2.52,0,0,1-1.85,4.38q-6.3,0-9.62,2.59a8.55,8.55,0,0,0-3.33,7.14v17.29a2.52,2.52,0,1,1-5,0V159.34a2.52,2.52,0,1,1,5,0v3.71A13,13,0,0,1,884,158.4a17.48,17.48,0,0,1,7.63-1.58A2.51,2.51,0,0,1,893.47,157.49Z"/><path class="cls-3" d="M907.92,176.14v2a12.47,12.47,0,0,0,.77,4.9,4.75,4.75,0,0,0,2.52,2.52,12.72,12.72,0,0,0,5,.77h5.74a14.56,14.56,0,0,0,5.74-.84,4.06,4.06,0,0,0,2.31-2.94,3.65,3.65,0,0,1,.88-1.79,2.42,2.42,0,0,1,1.78-.59,2.61,2.61,0,0,1,1.93.67,2.09,2.09,0,0,1,.46,1.92,9,9,0,0,1-3.92,6.51q-3.22,2.1-9.17,2.1h-5.74q-6.79,0-10-3.22t-3.26-10v-8q0-6.86,3.26-10.11t10-3.19h5.74q6.86,0,10.08,3.22t3.22,10.08v3.5a2.31,2.31,0,0,1-2.52,2.52Zm0-5h22.26v-1a12.74,12.74,0,0,0-.77-5,4.76,4.76,0,0,0-2.52-2.52,12.73,12.73,0,0,0-5-.77h-5.74a12.09,12.09,0,0,0-5,.7,4.74,4.74,0,0,0-2.52,2.55,13,13,0,0,0-.77,5Z"/><path class="cls-3" d="M981.6,157.49a2.51,2.51,0,0,1,.67,1.86v29.54a2.52,2.52,0,1,1-5,0v-2q-3.64,4.48-11.34,4.48h-2q-6.79,0-10-3.25t-3.25-10V159.34a2.52,2.52,0,1,1,5,0V178.1a12.7,12.7,0,0,0,.77,5,4.75,4.75,0,0,0,2.52,2.52,12.72,12.72,0,0,0,5,.77h2a19.81,19.81,0,0,0,8.26-1.43q3.08-1.43,3.08-4.24V159.34a2.63,2.63,0,0,1,4.38-1.86Z"/><path class="cls-3" d="M1046.87,159.83q2.73,3,2.73,10v19a2.52,2.52,0,0,1-5,0v-19q0-4.27-1.54-6.12t-5.11-1.86H1035q-4.2,0-6,1.86t-1.82,6.13v19a2.52,2.52,0,0,1-5,0v-19q0-4.27-1.54-6.12t-5.11-1.86h-2.87q-4.2,0-6,1.86t-1.82,6.13v19a2.52,2.52,0,0,1-5,0V159.34a2.52,2.52,0,1,1,5,0v2a11.1,11.1,0,0,1,3.92-3.46,11.82,11.82,0,0,1,5.32-1.08h1.47A14.39,14.39,0,0,1,1022,158a8.37,8.37,0,0,1,3.71,4,9.56,9.56,0,0,1,9.31-5.25h2.87Q1044.14,156.82,1046.87,159.83Z"/><path class="cls-3" d="M1120.13,187a2.52,2.52,0,0,1-1.85,4.38h-25.55a2.31,2.31,0,0,1-2.52-2.52V147.37a2.31,2.31,0,0,1,2.52-2.52h25.55a2.52,2.52,0,1,1,0,5h-23v15.47H1110a2.52,2.52,0,1,1,0,5h-14.77v16h23A2.51,2.51,0,0,1,1120.13,187Z"/><path class="cls-3" d="M1166.64,189.44a2.56,2.56,0,0,1-1.33,2.1,2.7,2.7,0,0,1-1.4.42,2.42,2.42,0,0,1-2-1.26l-11-18-.07-.14h-11v16.31a2.52,2.52,0,1,1-5,0V147.37a2.31,2.31,0,0,1,2.52-2.52h16.38q6.23,0,9.52,3.29t3.29,9.52v2.1q0,5.46-2.52,8.64a11.19,11.19,0,0,1-7.35,4l9.59,15.75A2.6,2.6,0,0,1,1166.64,189.44Zm-26.81-21.91h13.86q4.13,0,5.95-1.82t1.82-5.95v-2.1q0-4.13-1.82-6t-5.95-1.82h-13.86Z"/><path class="cls-3" d="M1183.51,187.69q-3.71-3.71-3.71-11.55v-16q0-7.91,3.68-11.62t11.51-3.64h8.47q6.51,0,9.87,2.69t3.85,8.58a2.23,2.23,0,0,1-.53,1.92,2.6,2.6,0,0,1-1.92.67q-2.24,0-2.59-2.52-.35-3.57-2.28-4.93t-6.41-1.37H1195a15,15,0,0,0-6.05.88,5.78,5.78,0,0,0-3.15,3.18,16.25,16.25,0,0,0-.95,6.16v16a16,16,0,0,0,.95,6.13,5.79,5.79,0,0,0,3.15,3.15,16,16,0,0,0,6.13.95h8.4q4.48,0,6.41-1.37t2.28-4.93q.35-2.52,2.59-2.52a2.61,2.61,0,0,1,1.92.67,2.24,2.24,0,0,1,.53,1.93q-.49,5.88-3.85,8.57t-9.87,2.7h-8.4Q1187.22,191.4,1183.51,187.69Z"/><path class="cls-3" d="M1230.83,191.4a2.7,2.7,0,0,1-1.93-.63,2.48,2.48,0,0,1-.67-1.89,18.28,18.28,0,0,1,2.14-9.24,18.81,18.81,0,0,1,5.14-5.92,83.32,83.32,0,0,1,8.26-5.15q4.76-2.73,6.83-4.09a12.1,12.1,0,0,0,3.25-3,6.84,6.84,0,0,0,1.19-4.06q0-4.34-1.58-5.92t-5.92-1.58h-7.49a9.65,9.65,0,0,0-5.25,1.12,5.32,5.32,0,0,0-2.1,3.85q-.35,2.45-2.59,2.45a2.19,2.19,0,0,1-2.45-2.59q.63-5,3.67-7.46t8.71-2.42h7.49q6.44,0,9.49,3t3,9.49a11.32,11.32,0,0,1-1.79,6.4,16.36,16.36,0,0,1-4.37,4.48q-2.59,1.78-7.7,4.65-4.55,2.59-6.79,4.13a15.84,15.84,0,0,0-3.88,3.81,11.83,11.83,0,0,0-2.07,5.5h23.87a2.52,2.52,0,1,1,0,5Z"/><path class="cls-3" d="M1277,187.69q-3.71-3.71-3.71-11.55V160q0-7.91,3.71-11.58t11.55-3.6h4.2q7.91,0,11.58,3.67t3.68,11.58v16q0,7.84-3.68,11.55t-11.58,3.71h-4.2Q1280.74,191.4,1277,187.69Zm15.75-1.33a16,16,0,0,0,6.13-.95,5.79,5.79,0,0,0,3.15-3.15,16,16,0,0,0,.95-6.12v-16a16,16,0,0,0-.95-6.12,5.79,5.79,0,0,0-3.15-3.15,16,16,0,0,0-6.12-.94h-4.2a15.28,15.28,0,0,0-6.12.88,5.79,5.79,0,0,0-3.15,3.15,16,16,0,0,0-.95,6.13v16.1a16,16,0,0,0,.95,6.13,5.79,5.79,0,0,0,3.15,3.15,16,16,0,0,0,6.13.95Zm-4.58-15.71a2.51,2.51,0,0,1-.67-1.86v-1.61a2.2,2.2,0,0,1,2.52-2.45h1.54a2.14,2.14,0,0,1,2.38,2.45v1.61a2.59,2.59,0,0,1-.63,1.86,2.29,2.29,0,0,1-1.75.67H1290A2.5,2.5,0,0,1,1288.19,170.65Z"/><path id="Separator-grey" class="cls-3" d="M595.27,180.9a2,2,0,0,0,2-2V71.44a2,2,0,1,0-4.09,0V178.85A2,2,0,0,0,595.27,180.9Z"/></g></svg>